<svg width="95" height="27" viewBox="0 0 95 27" fill="none" xmlns="http://www.w3.org/2000/svg">
<path d="M7.92 19.72H18.28L13.08 5.48L7.92 19.72ZM20.96 27L19.16 22.08H7.08L5.28 27H0.04L9.6 2.12H16.64L26.24 27H20.96ZM42.8813 9.96H38.3613V23.24C38.3613 23.7733 38.4279 24.12 38.5613 24.28C38.7213 24.4133 39.0679 24.48 39.6013 24.48H42.8413V27H36.3613C34.2546 27 33.2013 25.9467 33.2013 23.84V9.96H30.0813V7.6H33.2013V3.76H38.3613V7.6H42.8813V9.96ZM63.1528 7.6H68.3128V27H63.1528V25.76C62.8328 26.5867 62.0861 27 60.9128 27H51.8728C49.7661 27 48.7128 25.9467 48.7128 23.84V7.6H53.8728V23.4C53.8728 23.9333 53.9395 24.28 54.0728 24.44C54.2328 24.5733 54.5795 24.64 55.1128 24.64H61.7528C62.2595 24.64 62.6195 24.5467 62.8328 24.36C63.0461 24.1467 63.1528 23.8 63.1528 23.32V7.6ZM81.8169 27H76.6569V0.239999H81.8169V27ZM89.3225 27V22H95.0025V27H89.3225Z" fill="white"/>
</svg>
